<svg xmlns="http://www.w3.org/2000/svg" xmlns:xlink="http://www.w3.org/1999/xlink" contentStyleType="text/css" height="855px" preserveAspectRatio="none" style="width:1063px;height:855px;background:#FFFFFF;" version="1.1" viewBox="0 0 1063 855" width="1063px" zoomAndPan="magnify"><defs/><g><!--class MyApp--><g id="elem_MyApp"><rect codeLine="3" fill="#F1F1F1" height="64.2969" id="MyApp" rx="2.5" ry="2.5" style="stroke:#181818;stroke-width:0.5;" width="81.1523" x="132" y="7"/><ellipse cx="147.6469" cy="23" fill="#ADD1B2" rx="11" ry="11" style="stroke:#181818;stroke-width:1.0;"/><path d="M150.6156,28.6406 Q150.0375,28.9375 149.3969,29.0781 Q148.7563,29.2344 148.0531,29.2344 Q145.5531,29.2344 144.225,27.5938 Q142.9125,25.9375 142.9125,22.8125 Q142.9125,19.6875 144.225,18.0313 Q145.5531,16.375 148.0531,16.375 Q148.7563,16.375 149.3969,16.5313 Q150.0531,16.6875 150.6156,16.9844 L150.6156,19.7031 Q149.9906,19.125 149.3969,18.8594 Q148.8031,18.5781 148.1781,18.5781 Q146.8344,18.5781 146.1469,19.6563 Q145.4594,20.7188 145.4594,22.8125 Q145.4594,24.9063 146.1469,25.9844 Q146.8344,27.0469 148.1781,27.0469 Q148.8031,27.0469 149.3969,26.7813 Q149.9906,26.5 150.6156,25.9219 L150.6156,28.6406 Z " fill="#000000"/><text fill="#000000" font-family="sans-serif" font-size="14" lengthAdjust="spacing" textLength="47.7148" x="161.7906" y="27.8467">MyApp</text><line style="stroke:#181818;stroke-width:0.5;" x1="133" x2="212.1523" y1="39" y2="39"/><line style="stroke:#181818;stroke-width:1.0;" x1="133" x2="212.1523" y1="47" y2="47"/><text fill="#000000" font-family="sans-serif" font-size="14" lengthAdjust="spacing" textLength="69.1523" x="138" y="63.9951">+render()</text></g><!--class PiwikProProvider--><g id="elem_PiwikProProvider"><rect codeLine="8" fill="#F1F1F1" height="96.8906" id="PiwikProProvider" rx="2.5" ry="2.5" style="stroke:#181818;stroke-width:0.5;" width="159.3145" x="7" y="148"/><ellipse cx="26.7597" cy="164" fill="#ADD1B2" rx="11" ry="11" style="stroke:#181818;stroke-width:1.0;"/><path d="M29.7285,169.6406 Q29.1503,169.9375 28.5097,170.0781 Q27.8691,170.2344 27.166,170.2344 Q24.666,170.2344 23.3378,168.5938 Q22.0253,166.9375 22.0253,163.8125 Q22.0253,160.6875 23.3378,159.0313 Q24.666,157.375 27.166,157.375 Q27.8691,157.375 28.5097,157.5313 Q29.166,157.6875 29.7285,157.9844 L29.7285,160.7031 Q29.1035,160.125 28.5097,159.8594 Q27.916,159.5781 27.291,159.5781 Q25.9472,159.5781 25.2597,160.6563 Q24.5722,161.7188 24.5722,163.8125 Q24.5722,165.9063 25.2597,166.9844 Q25.9472,168.0469 27.291,168.0469 Q27.916,168.0469 28.5097,167.7813 Q29.1035,167.5 29.7285,166.9219 L29.7285,169.6406 Z " fill="#000000"/><text fill="#000000" font-family="sans-serif" font-size="14" lengthAdjust="spacing" textLength="116.7373" x="41.8174" y="168.8467">PiwikProProvider</text><line style="stroke:#181818;stroke-width:0.5;" x1="8" x2="165.3145" y1="180" y2="180"/><text fill="#000000" font-family="sans-serif" font-size="14" lengthAdjust="spacing" textLength="140.4375" x="13" y="196.9951">+containerId: string</text><text fill="#000000" font-family="sans-serif" font-size="14" lengthAdjust="spacing" textLength="147.3145" x="13" y="213.292">+containerUrl: string</text><line style="stroke:#181818;stroke-width:1.0;" x1="8" x2="165.3145" y1="220.5938" y2="220.5938"/><text fill="#000000" font-family="sans-serif" font-size="14" lengthAdjust="spacing" textLength="69.1523" x="13" y="237.5889">+render()</text></g><!--class IndexPage--><g id="elem_IndexPage"><rect codeLine="15" fill="#F1F1F1" height="64.2969" id="IndexPage" rx="2.5" ry="2.5" style="stroke:#181818;stroke-width:0.5;" width="105.3086" x="355" y="7"/><ellipse cx="370" cy="23" fill="#ADD1B2" rx="11" ry="11" style="stroke:#181818;stroke-width:1.0;"/><path d="M372.9688,28.6406 Q372.3906,28.9375 371.75,29.0781 Q371.1094,29.2344 370.4063,29.2344 Q367.9063,29.2344 366.5781,27.5938 Q365.2656,25.9375 365.2656,22.8125 Q365.2656,19.6875 366.5781,18.0313 Q367.9063,16.375 370.4063,16.375 Q371.1094,16.375 371.75,16.5313 Q372.4063,16.6875 372.9688,16.9844 L372.9688,19.7031 Q372.3438,19.125 371.75,18.8594 Q371.1563,18.5781 370.5313,18.5781 Q369.1875,18.5781 368.5,19.6563 Q367.8125,20.7188 367.8125,22.8125 Q367.8125,24.9063 368.5,25.9844 Q369.1875,27.0469 370.5313,27.0469 Q371.1563,27.0469 371.75,26.7813 Q372.3438,26.5 372.9688,25.9219 L372.9688,28.6406 Z " fill="#000000"/><text fill="#000000" font-family="sans-serif" font-size="14" lengthAdjust="spacing" textLength="73.3086" x="384" y="27.8467">IndexPage</text><line style="stroke:#181818;stroke-width:0.5;" x1="356" x2="459.3086" y1="39" y2="39"/><line style="stroke:#181818;stroke-width:1.0;" x1="356" x2="459.3086" y1="47" y2="47"/><text fill="#000000" font-family="sans-serif" font-size="14" lengthAdjust="spacing" textLength="69.1523" x="361" y="63.9951">+render()</text></g><!--class SearchPage--><g id="elem_SearchPage"><rect codeLine="20" fill="#F1F1F1" height="64.2969" id="SearchPage" rx="2.5" ry="2.5" style="stroke:#181818;stroke-width:0.5;" width="114.9268" x="528" y="7"/><ellipse cx="543" cy="23" fill="#ADD1B2" rx="11" ry="11" style="stroke:#181818;stroke-width:1.0;"/><path d="M545.9688,28.6406 Q545.3906,28.9375 544.75,29.0781 Q544.1094,29.2344 543.4063,29.2344 Q540.9063,29.2344 539.5781,27.5938 Q538.2656,25.9375 538.2656,22.8125 Q538.2656,19.6875 539.5781,18.0313 Q540.9063,16.375 543.4063,16.375 Q544.1094,16.375 544.75,16.5313 Q545.4063,16.6875 545.9688,16.9844 L545.9688,19.7031 Q545.3438,19.125 544.75,18.8594 Q544.1563,18.5781 543.5313,18.5781 Q542.1875,18.5781 541.5,19.6563 Q540.8125,20.7188 540.8125,22.8125 Q540.8125,24.9063 541.5,25.9844 Q542.1875,27.0469 543.5313,27.0469 Q544.1563,27.0469 544.75,26.7813 Q545.3438,26.5 545.9688,25.9219 L545.9688,28.6406 Z " fill="#000000"/><text fill="#000000" font-family="sans-serif" font-size="14" lengthAdjust="spacing" textLength="82.9268" x="557" y="27.8467">SearchPage</text><line style="stroke:#181818;stroke-width:0.5;" x1="529" x2="641.9268" y1="39" y2="39"/><line style="stroke:#181818;stroke-width:1.0;" x1="529" x2="641.9268" y1="47" y2="47"/><text fill="#000000" font-family="sans-serif" font-size="14" lengthAdjust="spacing" textLength="69.1523" x="534" y="63.9951">+render()</text></g><!--class Opensearch--><g id="elem_Opensearch"><rect codeLine="25" fill="#F1F1F1" height="178.375" id="Opensearch" rx="2.5" ry="2.5" style="stroke:#181818;stroke-width:0.5;" width="209.5244" x="425.5" y="322"/><ellipse cx="483.9097" cy="338" fill="#ADD1B2" rx="11" ry="11" style="stroke:#181818;stroke-width:1.0;"/><path d="M486.8784,343.6406 Q486.3003,343.9375 485.6597,344.0781 Q485.019,344.2344 484.3159,344.2344 Q481.8159,344.2344 480.4878,342.5938 Q479.1753,340.9375 479.1753,337.8125 Q479.1753,334.6875 480.4878,333.0313 Q481.8159,331.375 484.3159,331.375 Q485.019,331.375 485.6597,331.5313 Q486.3159,331.6875 486.8784,331.9844 L486.8784,334.7031 Q486.2534,334.125 485.6597,333.8594 Q485.0659,333.5781 484.4409,333.5781 Q483.0972,333.5781 482.4097,334.6563 Q481.7222,335.7188 481.7222,337.8125 Q481.7222,339.9063 482.4097,340.9844 Q483.0972,342.0469 484.4409,342.0469 Q485.0659,342.0469 485.6597,341.7813 Q486.2534,341.5 486.8784,340.9219 L486.8784,343.6406 Z " fill="#000000"/><text fill="#000000" font-family="sans-serif" font-size="14" lengthAdjust="spacing" textLength="84.2051" x="504.4097" y="342.8467">Opensearch</text><line style="stroke:#181818;stroke-width:0.5;" x1="426.5" x2="634.0244" y1="354" y2="354"/><text fill="#000000" font-family="sans-serif" font-size="14" lengthAdjust="spacing" textLength="197.5244" x="431.5" y="370.9951">+userSearchRequest: string</text><text fill="#000000" font-family="sans-serif" font-size="14" lengthAdjust="spacing" textLength="143.2813" x="431.5" y="387.292">+queryString: string</text><text fill="#000000" font-family="sans-serif" font-size="14" lengthAdjust="spacing" textLength="124.7285" x="431.5" y="403.5889">+currentPage: int</text><text fill="#000000" font-family="sans-serif" font-size="14" lengthAdjust="spacing" textLength="102.8535" x="431.5" y="419.8857">+pageSize: int</text><text fill="#000000" font-family="sans-serif" font-size="14" lengthAdjust="spacing" textLength="141.4561" x="431.5" y="436.1826">+hasSearched: bool</text><line style="stroke:#181818;stroke-width:1.0;" x1="426.5" x2="634.0244" y1="443.4844" y2="443.4844"/><text fill="#000000" font-family="sans-serif" font-size="14" lengthAdjust="spacing" textLength="87.9375" x="431.5" y="460.4795">+useEffect()</text><text fill="#000000" font-family="sans-serif" font-size="14" lengthAdjust="spacing" textLength="120.0322" x="431.5" y="476.7764">+handleSubmit()</text><text fill="#000000" font-family="sans-serif" font-size="14" lengthAdjust="spacing" textLength="69.1523" x="431.5" y="493.0732">+render()</text></g><!--class useOpenPlatformSearch--><g id="elem_useOpenPlatformSearch"><rect codeLine="37" fill="#F1F1F1" height="145.7813" id="useOpenPlatformSearch" rx="2.5" ry="2.5" style="stroke:#181818;stroke-width:0.5;" width="240.9287" x="54" y="577"/><ellipse cx="86.5781" cy="593" fill="#ADD1B2" rx="11" ry="11" style="stroke:#181818;stroke-width:1.0;"/><path d="M89.5469,598.6406 Q88.9688,598.9375 88.3281,599.0781 Q87.6875,599.2344 86.9844,599.2344 Q84.4844,599.2344 83.1563,597.5938 Q81.8438,595.9375 81.8438,592.8125 Q81.8438,589.6875 83.1563,588.0313 Q84.4844,586.375 86.9844,586.375 Q87.6875,586.375 88.3281,586.5313 Q88.9844,586.6875 89.5469,586.9844 L89.5469,589.7031 Q88.9219,589.125 88.3281,588.8594 Q87.7344,588.5781 87.1094,588.5781 Q85.7656,588.5781 85.0781,589.6563 Q84.3906,590.7188 84.3906,592.8125 Q84.3906,594.9063 85.0781,595.9844 Q85.7656,597.0469 87.1094,597.0469 Q87.7344,597.0469 88.3281,596.7813 Q88.9219,596.5 89.5469,595.9219 L89.5469,598.6406 Z " fill="#000000"/><text fill="#000000" font-family="sans-serif" font-size="14" lengthAdjust="spacing" textLength="169.8662" x="104.4844" y="597.8467">useOpenPlatformSearch</text><line style="stroke:#181818;stroke-width:0.5;" x1="55" x2="293.9287" y1="609" y2="609"/><text fill="#000000" font-family="sans-serif" font-size="14" lengthAdjust="spacing" textLength="143.2813" x="60" y="625.9951">+queryString: string</text><text fill="#000000" font-family="sans-serif" font-size="14" lengthAdjust="spacing" textLength="124.7285" x="60" y="642.292">+currentPage: int</text><text fill="#000000" font-family="sans-serif" font-size="14" lengthAdjust="spacing" textLength="102.8535" x="60" y="658.5889">+pageSize: int</text><line style="stroke:#181818;stroke-width:1.0;" x1="55" x2="293.9287" y1="665.8906" y2="665.8906"/><text fill="#000000" font-family="sans-serif" font-size="14" lengthAdjust="spacing" textLength="87.9375" x="60" y="682.8857">+useEffect()</text><text fill="#000000" font-family="sans-serif" font-size="14" lengthAdjust="spacing" textLength="117.5713" x="60" y="699.1826">+fetchBookList()</text><text fill="#000000" font-family="sans-serif" font-size="14" lengthAdjust="spacing" textLength="228.9287" x="60" y="715.4795">+returns [searchResult, loading]</text></g><!--class Pagination--><g id="elem_Pagination"><rect codeLine="47" fill="#F1F1F1" height="113.1875" id="Pagination" rx="2.5" ry="2.5" style="stroke:#181818;stroke-width:0.5;" width="202.5996" x="330" y="593.5"/><ellipse cx="390.0161" cy="609.5" fill="#ADD1B2" rx="11" ry="11" style="stroke:#181818;stroke-width:1.0;"/><path d="M392.9849,615.1406 Q392.4067,615.4375 391.7661,615.5781 Q391.1255,615.7344 390.4224,615.7344 Q387.9224,615.7344 386.5942,614.0938 Q385.2817,612.4375 385.2817,609.3125 Q385.2817,606.1875 386.5942,604.5313 Q387.9224,602.875 390.4224,602.875 Q391.1255,602.875 391.7661,603.0313 Q392.4224,603.1875 392.9849,603.4844 L392.9849,606.2031 Q392.3599,605.625 391.7661,605.3594 Q391.1724,605.0781 390.5474,605.0781 Q389.2036,605.0781 388.5161,606.1563 Q387.8286,607.2188 387.8286,609.3125 Q387.8286,611.4063 388.5161,612.4844 Q389.2036,613.5469 390.5474,613.5469 Q391.1724,613.5469 391.7661,613.2813 Q392.3599,613 392.9849,612.4219 L392.9849,615.1406 Z " fill="#000000"/><text fill="#000000" font-family="sans-serif" font-size="14" lengthAdjust="spacing" textLength="74.0674" x="410.5161" y="614.3467">Pagination</text><line style="stroke:#181818;stroke-width:0.5;" x1="331" x2="531.5996" y1="625.5" y2="625.5"/><text fill="#000000" font-family="sans-serif" font-size="14" lengthAdjust="spacing" textLength="124.7285" x="336" y="642.4951">+currentPage: int</text><text fill="#000000" font-family="sans-serif" font-size="14" lengthAdjust="spacing" textLength="112.9775" x="336" y="658.792">+totalPages: int</text><text fill="#000000" font-family="sans-serif" font-size="14" lengthAdjust="spacing" textLength="190.5996" x="336" y="675.0889">+onPageChange(page: int)</text><line style="stroke:#181818;stroke-width:1.0;" x1="331" x2="531.5996" y1="682.3906" y2="682.3906"/><text fill="#000000" font-family="sans-serif" font-size="14" lengthAdjust="spacing" textLength="69.1523" x="336" y="699.3857">+render()</text></g><!--class Header--><g id="elem_Header"><rect codeLine="55" fill="#F1F1F1" height="64.2969" id="Header" rx="2.5" ry="2.5" style="stroke:#181818;stroke-width:0.5;" width="82.9756" x="191" y="379"/><ellipse cx="206" cy="395" fill="#ADD1B2" rx="11" ry="11" style="stroke:#181818;stroke-width:1.0;"/><path d="M208.9688,400.6406 Q208.3906,400.9375 207.75,401.0781 Q207.1094,401.2344 206.4063,401.2344 Q203.9063,401.2344 202.5781,399.5938 Q201.2656,397.9375 201.2656,394.8125 Q201.2656,391.6875 202.5781,390.0313 Q203.9063,388.375 206.4063,388.375 Q207.1094,388.375 207.75,388.5313 Q208.4063,388.6875 208.9688,388.9844 L208.9688,391.7031 Q208.3438,391.125 207.75,390.8594 Q207.1563,390.5781 206.5313,390.5781 Q205.1875,390.5781 204.5,391.6563 Q203.8125,392.7188 203.8125,394.8125 Q203.8125,396.9063 204.5,397.9844 Q205.1875,399.0469 206.5313,399.0469 Q207.1563,399.0469 207.75,398.7813 Q208.3438,398.5 208.9688,397.9219 L208.9688,400.6406 Z " fill="#000000"/><text fill="#000000" font-family="sans-serif" font-size="14" lengthAdjust="spacing" textLength="50.9756" x="220" y="399.8467">Header</text><line style="stroke:#181818;stroke-width:0.5;" x1="192" x2="272.9756" y1="411" y2="411"/><line style="stroke:#181818;stroke-width:1.0;" x1="192" x2="272.9756" y1="419" y2="419"/><text fill="#000000" font-family="sans-serif" font-size="14" lengthAdjust="spacing" textLength="69.1523" x="197" y="435.9951">+render()</text></g><!--class Footer--><g id="elem_Footer"><rect codeLine="60" fill="#F1F1F1" height="64.2969" id="Footer" rx="2.5" ry="2.5" style="stroke:#181818;stroke-width:0.5;" width="81.1523" x="309" y="379"/><ellipse cx="325.8497" cy="395" fill="#ADD1B2" rx="11" ry="11" style="stroke:#181818;stroke-width:1.0;"/><path d="M328.8184,400.6406 Q328.2403,400.9375 327.5997,401.0781 Q326.959,401.2344 326.2559,401.2344 Q323.7559,401.2344 322.4278,399.5938 Q321.1153,397.9375 321.1153,394.8125 Q321.1153,391.6875 322.4278,390.0313 Q323.7559,388.375 326.2559,388.375 Q326.959,388.375 327.5997,388.5313 Q328.2559,388.6875 328.8184,388.9844 L328.8184,391.7031 Q328.1934,391.125 327.5997,390.8594 Q327.0059,390.5781 326.3809,390.5781 Q325.0372,390.5781 324.3497,391.6563 Q323.6622,392.7188 323.6622,394.8125 Q323.6622,396.9063 324.3497,397.9844 Q325.0372,399.0469 326.3809,399.0469 Q327.0059,399.0469 327.5997,398.7813 Q328.1934,398.5 328.8184,397.9219 L328.8184,400.6406 Z " fill="#000000"/><text fill="#000000" font-family="sans-serif" font-size="14" lengthAdjust="spacing" textLength="45.042" x="340.2607" y="399.8467">Footer</text><line style="stroke:#181818;stroke-width:0.5;" x1="310" x2="389.1523" y1="411" y2="411"/><line style="stroke:#181818;stroke-width:1.0;" x1="310" x2="389.1523" y1="419" y2="419"/><text fill="#000000" font-family="sans-serif" font-size="14" lengthAdjust="spacing" textLength="69.1523" x="315" y="435.9951">+render()</text></g><!--class Layout--><g id="elem_Layout"><rect codeLine="65" fill="#F1F1F1" height="64.2969" id="Layout" rx="2.5" ry="2.5" style="stroke:#181818;stroke-width:0.5;" width="81.1523" x="349" y="164.5"/><ellipse cx="364.7022" cy="180.5" fill="#ADD1B2" rx="11" ry="11" style="stroke:#181818;stroke-width:1.0;"/><path d="M367.671,186.1406 Q367.0929,186.4375 366.4522,186.5781 Q365.8116,186.7344 365.1085,186.7344 Q362.6085,186.7344 361.2804,185.0938 Q359.9679,183.4375 359.9679,180.3125 Q359.9679,177.1875 361.2804,175.5313 Q362.6085,173.875 365.1085,173.875 Q365.8116,173.875 366.4522,174.0313 Q367.1085,174.1875 367.671,174.4844 L367.671,177.2031 Q367.046,176.625 366.4522,176.3594 Q365.8585,176.0781 365.2335,176.0781 Q363.8897,176.0781 363.2022,177.1563 Q362.5147,178.2188 362.5147,180.3125 Q362.5147,182.4063 363.2022,183.4844 Q363.8897,184.5469 365.2335,184.5469 Q365.8585,184.5469 366.4522,184.2813 Q367.046,184 367.671,183.4219 L367.671,186.1406 Z " fill="#000000"/><text fill="#000000" font-family="sans-serif" font-size="14" lengthAdjust="spacing" textLength="47.5918" x="378.8583" y="185.3467">Layout</text><line style="stroke:#181818;stroke-width:0.5;" x1="350" x2="429.1523" y1="196.5" y2="196.5"/><line style="stroke:#181818;stroke-width:1.0;" x1="350" x2="429.1523" y1="204.5" y2="204.5"/><text fill="#000000" font-family="sans-serif" font-size="14" lengthAdjust="spacing" textLength="69.1523" x="355" y="221.4951">+render()</text></g><!--class SearchAPI--><g id="elem_SearchAPI"><rect codeLine="70" fill="#F1F1F1" height="129.4844" id="SearchAPI" rx="2.5" ry="2.5" style="stroke:#181818;stroke-width:0.5;" width="330.8965" x="568" y="585.5"/><ellipse cx="693.9214" cy="601.5" fill="#ADD1B2" rx="11" ry="11" style="stroke:#181818;stroke-width:1.0;"/><path d="M696.8901,607.1406 Q696.312,607.4375 695.6714,607.5781 Q695.0308,607.7344 694.3276,607.7344 Q691.8276,607.7344 690.4995,606.0938 Q689.187,604.4375 689.187,601.3125 Q689.187,598.1875 690.4995,596.5313 Q691.8276,594.875 694.3276,594.875 Q695.0308,594.875 695.6714,595.0313 Q696.3276,595.1875 696.8901,595.4844 L696.8901,598.2031 Q696.2651,597.625 695.6714,597.3594 Q695.0776,597.0781 694.4526,597.0781 Q693.1089,597.0781 692.4214,598.1563 Q691.7339,599.2188 691.7339,601.3125 Q691.7339,603.4063 692.4214,604.4844 Q693.1089,605.5469 694.4526,605.5469 Q695.0776,605.5469 695.6714,605.2813 Q696.2651,605 696.8901,604.4219 L696.8901,607.1406 Z " fill="#000000"/><text fill="#000000" font-family="sans-serif" font-size="14" lengthAdjust="spacing" textLength="70.5537" x="714.4214" y="606.3467">SearchAPI</text><line style="stroke:#181818;stroke-width:0.5;" x1="569" x2="897.8965" y1="617.5" y2="617.5"/><text fill="#000000" font-family="sans-serif" font-size="14" lengthAdjust="spacing" textLength="57.6338" x="574" y="634.4951">+main()</text><text fill="#000000" font-family="sans-serif" font-size="14" lengthAdjust="spacing" textLength="318.8965" x="574" y="650.792">+index_handler(request: Request): Response</text><text fill="#000000" font-family="sans-serif" font-size="14" lengthAdjust="spacing" textLength="167.4258" x="574" y="667.0889">+access_token(): String</text><line style="stroke:#181818;stroke-width:1.0;" x1="569" x2="897.8965" y1="674.3906" y2="674.3906"/><text fill="#000000" font-family="sans-serif" font-size="14" lengthAdjust="spacing" textLength="152.4004" x="574" y="691.3857">-fetch_access_token()</text><text fill="#000000" font-family="sans-serif" font-size="14" lengthAdjust="spacing" textLength="278.6875" x="574" y="707.6826">-Data Models (Data, Search, Work, etc.)</text></g><!--class Component--><g id="elem_Component"><rect fill="#F1F1F1" height="48" id="Component" rx="2.5" ry="2.5" style="stroke:#181818;stroke-width:0.5;" width="113.2793" x="201" y="172.5"/><ellipse cx="216" cy="188.5" fill="#ADD1B2" rx="11" ry="11" style="stroke:#181818;stroke-width:1.0;"/><path d="M218.9688,194.1406 Q218.3906,194.4375 217.75,194.5781 Q217.1094,194.7344 216.4063,194.7344 Q213.9063,194.7344 212.5781,193.0938 Q211.2656,191.4375 211.2656,188.3125 Q211.2656,185.1875 212.5781,183.5313 Q213.9063,181.875 216.4063,181.875 Q217.1094,181.875 217.75,182.0313 Q218.4063,182.1875 218.9688,182.4844 L218.9688,185.2031 Q218.3438,184.625 217.75,184.3594 Q217.1563,184.0781 216.5313,184.0781 Q215.1875,184.0781 214.5,185.1563 Q213.8125,186.2188 213.8125,188.3125 Q213.8125,190.4063 214.5,191.4844 Q215.1875,192.5469 216.5313,192.5469 Q217.1563,192.5469 217.75,192.2813 Q218.3438,192 218.9688,191.4219 L218.9688,194.1406 Z " fill="#000000"/><text fill="#000000" font-family="sans-serif" font-size="14" lengthAdjust="spacing" textLength="81.2793" x="230" y="193.3467">Component</text><line style="stroke:#181818;stroke-width:0.5;" x1="202" x2="313.2793" y1="204.5" y2="204.5"/><line style="stroke:#181818;stroke-width:0.5;" x1="202" x2="313.2793" y1="212.5" y2="212.5"/></g><!--class Router--><g id="elem_Router"><rect fill="#F1F1F1" height="48" id="Router" rx="2.5" ry="2.5" style="stroke:#181818;stroke-width:0.5;" width="79.0244" x="934" y="626"/><ellipse cx="949" cy="642" fill="#ADD1B2" rx="11" ry="11" style="stroke:#181818;stroke-width:1.0;"/><path d="M951.9688,647.6406 Q951.3906,647.9375 950.75,648.0781 Q950.1094,648.2344 949.4063,648.2344 Q946.9063,648.2344 945.5781,646.5938 Q944.2656,644.9375 944.2656,641.8125 Q944.2656,638.6875 945.5781,637.0313 Q946.9063,635.375 949.4063,635.375 Q950.1094,635.375 950.75,635.5313 Q951.4063,635.6875 951.9688,635.9844 L951.9688,638.7031 Q951.3438,638.125 950.75,637.8594 Q950.1563,637.5781 949.5313,637.5781 Q948.1875,637.5781 947.5,638.6563 Q946.8125,639.7188 946.8125,641.8125 Q946.8125,643.9063 947.5,644.9844 Q948.1875,646.0469 949.5313,646.0469 Q950.1563,646.0469 950.75,645.7813 Q951.3438,645.5 951.9688,644.9219 L951.9688,647.6406 Z " fill="#000000"/><text fill="#000000" font-family="sans-serif" font-size="14" lengthAdjust="spacing" textLength="47.0244" x="963" y="646.8467">Router</text><line style="stroke:#181818;stroke-width:0.5;" x1="935" x2="1012.0244" y1="658" y2="658"/><line style="stroke:#181818;stroke-width:0.5;" x1="935" x2="1012.0244" y1="666" y2="666"/></g><!--class ExternalAPI--><g id="elem_ExternalAPI"><rect fill="#F1F1F1" height="48" id="ExternalAPI" rx="2.5" ry="2.5" style="stroke:#181818;stroke-width:0.5;" width="112.4795" x="677.5" y="800"/><ellipse cx="692.5" cy="816" fill="#ADD1B2" rx="11" ry="11" style="stroke:#181818;stroke-width:1.0;"/><path d="M695.4688,821.6406 Q694.8906,821.9375 694.25,822.0781 Q693.6094,822.2344 692.9063,822.2344 Q690.4063,822.2344 689.0781,820.5938 Q687.7656,818.9375 687.7656,815.8125 Q687.7656,812.6875 689.0781,811.0313 Q690.4063,809.375 692.9063,809.375 Q693.6094,809.375 694.25,809.5313 Q694.9063,809.6875 695.4688,809.9844 L695.4688,812.7031 Q694.8438,812.125 694.25,811.8594 Q693.6563,811.5781 693.0313,811.5781 Q691.6875,811.5781 691,812.6563 Q690.3125,813.7188 690.3125,815.8125 Q690.3125,817.9063 691,818.9844 Q691.6875,820.0469 693.0313,820.0469 Q693.6563,820.0469 694.25,819.7813 Q694.8438,819.5 695.4688,818.9219 L695.4688,821.6406 Z " fill="#000000"/><text fill="#000000" font-family="sans-serif" font-size="14" lengthAdjust="spacing" textLength="80.4795" x="706.5" y="820.8467">ExternalAPI</text><line style="stroke:#181818;stroke-width:0.5;" x1="678.5" x2="788.9795" y1="832" y2="832"/><line style="stroke:#181818;stroke-width:0.5;" x1="678.5" x2="788.9795" y1="840" y2="840"/></g><!--link MyApp to PiwikProProvider--><g id="link_MyApp_PiwikProProvider"><path codeLine="79" d="M155.3,71.09 C143.15,93.07 129.5231,117.6991 115.7231,142.6591 " fill="none" id="MyApp-to-PiwikProProvider" style="stroke:#181818;stroke-width:1.0;"/><polygon fill="#181818" points="112.82,147.91,120.6753,141.9691,115.2393,143.5343,113.6741,138.0982,112.82,147.91" style="stroke:#181818;stroke-width:1.0;"/><text fill="#000000" font-family="sans-serif" font-size="13" lengthAdjust="spacing" textLength="29.7832" x="138.5" y="114.0669">uses</text></g><!--link MyApp to Component--><g id="link_MyApp_Component"><path codeLine="80" d="M189.5,71.09 C205.78,100.87 227.0914,139.8756 241.8114,166.7956 " fill="none" id="MyApp-to-Component" style="stroke:#181818;stroke-width:1.0;"/><polygon fill="#181818" points="244.69,172.06,243.8817,162.2444,242.2912,167.673,236.8625,166.0825,244.69,172.06" style="stroke:#181818;stroke-width:1.0;"/><text fill="#000000" font-family="sans-serif" font-size="13" lengthAdjust="spacing" textLength="49.9497" x="216.5" y="114.0669">renders</text></g><!--link IndexPage to Layout--><g id="link_IndexPage_Layout"><path codeLine="82" d="M403.9,71.09 C400.76,98.21 396.9203,131.3898 393.7803,158.4998 " fill="none" id="IndexPage-to-Layout" style="stroke:#181818;stroke-width:1.0;"/><polygon fill="#181818" points="393.09,164.46,398.0989,155.98,393.6653,159.4932,390.1521,155.0595,393.09,164.46" style="stroke:#181818;stroke-width:1.0;"/><text fill="#000000" font-family="sans-serif" font-size="13" lengthAdjust="spacing" textLength="29.7832" x="401.5" y="114.0669">uses</text></g><!--link IndexPage to Opensearch--><g id="link_IndexPage_Opensearch"><path codeLine="83" d="M425.32,71.1 C430.31,80.52 435.46,91.02 439.5,101 C468.89,173.57 491.8547,253.3693 507.9847,316.0493 " fill="none" id="IndexPage-to-Opensearch" style="stroke:#181818;stroke-width:1.0;"/><polygon fill="#181818" points="509.48,321.86,511.1108,312.1471,508.2339,317.0178,503.3632,314.1409,509.48,321.86" style="stroke:#181818;stroke-width:1.0;"/><text fill="#000000" font-family="sans-serif" font-size="13" lengthAdjust="spacing" textLength="29.7832" x="489.5" y="201.0669">uses</text></g><!--link SearchPage to Layout--><g id="link_SearchPage_Layout"><path codeLine="85" d="M546.31,71.09 C512.12,98.21 467.4903,133.6208 433.3203,160.7308 " fill="none" id="SearchPage-to-Layout" style="stroke:#181818;stroke-width:1.0;"/><polygon fill="#181818" points="428.62,164.46,438.1566,161.9998,432.5369,161.3523,433.1844,155.7327,428.62,164.46" style="stroke:#181818;stroke-width:1.0;"/><text fill="#000000" font-family="sans-serif" font-size="13" lengthAdjust="spacing" textLength="29.7832" x="506.5" y="114.0669">uses</text></g><!--link SearchPage to Opensearch--><g id="link_SearchPage_Opensearch"><path codeLine="86" d="M580.86,71.23 C572.73,125.93 556.5124,235.0252 544.5024,315.8052 " fill="none" id="SearchPage-to-Opensearch" style="stroke:#181818;stroke-width:1.0;"/><polygon fill="#181818" points="543.62,321.74,548.9,313.4261,544.3553,316.7944,540.987,312.2496,543.62,321.74" style="stroke:#181818;stroke-width:1.0;"/><text fill="#000000" font-family="sans-serif" font-size="13" lengthAdjust="spacing" textLength="29.7832" x="569.5" y="201.0669">uses</text></g><!--link Layout to Header--><g id="link_Layout_Header"><path codeLine="88" d="M349.96,228.56 C334.61,241.82 317.61,258.13 304.5,275 C279.15,307.61 260.4617,344.9348 247.7917,373.5148 " fill="none" id="Layout-to-Header" style="stroke:#181818;stroke-width:1.0;"/><polygon fill="#181818" points="245.36,379,252.6643,372.3934,247.3864,374.429,245.3507,369.1511,245.36,379" style="stroke:#181818;stroke-width:1.0;"/><text fill="#000000" font-family="sans-serif" font-size="13" lengthAdjust="spacing" textLength="29.7832" x="305.5" y="288.0669">uses</text></g><!--link Layout to Footer--><g id="link_Layout_Footer"><path codeLine="89" d="M367.41,228.75 C359.12,242.3 350.7,258.76 346.5,275 C337.51,309.72 339.5401,345.2136 343.2701,372.9436 " fill="none" id="Layout-to-Footer" style="stroke:#181818;stroke-width:1.0;"/><polygon fill="#181818" points="344.07,378.89,346.8345,369.4371,343.4034,373.9346,338.9059,370.5036,344.07,378.89" style="stroke:#181818;stroke-width:1.0;"/><text fill="#000000" font-family="sans-serif" font-size="13" lengthAdjust="spacing" textLength="29.7832" x="347.5" y="288.0669">uses</text></g><!--reverse link Layout to Opensearch--><g id="link_Layout_Opensearch"><path codeLine="90" d="M397.4353,240.5104 C401.6453,259.6704 406.16,272.47 417.5,292 C423.41,302.18 430.37,312.16 437.89,321.74 " fill="none" id="Layout-backto-Opensearch" style="stroke:#181818;stroke-width:1.0;"/><polygon fill="#181818" points="394.86,228.79,392.2409,235.5086,397.4353,240.5104,400.0545,233.7918,394.86,228.79" style="stroke:#181818;stroke-width:1.0;"/><text fill="#000000" font-family="sans-serif" font-size="13" lengthAdjust="spacing" textLength="55.0278" x="418.5" y="288.0669">contains</text></g><!--link Opensearch to useOpenPlatformSearch--><g id="link_Opensearch_useOpenPlatformSearch"><path codeLine="92" d="M425.41,487.73 C419.37,491.91 413.37,496.03 407.5,500 C369.62,525.63 332.7415,549.5981 294.9915,573.6281 " fill="none" id="Opensearch-to-useOpenPlatformSearch" style="stroke:#181818;stroke-width:1.0;"/><polygon fill="#181818" points="289.93,576.85,299.6703,575.3914,294.1479,574.165,295.3743,568.6427,289.93,576.85" style="stroke:#181818;stroke-width:1.0;"/><text fill="#000000" font-family="sans-serif" font-size="13" lengthAdjust="spacing" textLength="29.7832" x="358.5" y="543.0669">uses</text></g><!--link Opensearch to Pagination--><g id="link_Opensearch_Pagination"><path codeLine="93" d="M493.64,500.25 C480.61,531.44 468.6445,560.0944 457.0545,587.8144 " fill="none" id="Opensearch-to-Pagination" style="stroke:#181818;stroke-width:1.0;"/><polygon fill="#181818" points="454.74,593.35,461.9022,586.5896,456.6687,588.737,454.5213,583.5036,454.74,593.35" style="stroke:#181818;stroke-width:1.0;"/><text fill="#000000" font-family="sans-serif" font-size="13" lengthAdjust="spacing" textLength="49.9497" x="482.5" y="543.0669">renders</text></g><!--link Opensearch to Router--><g id="link_Opensearch_Router"><path codeLine="94" d="M635.81,441.29 C717.91,467.66 831.81,512.28 916.5,577 C933.98,590.36 945.8578,605.2437 956.1578,620.7337 " fill="none" id="Opensearch-to-Router" style="stroke:#181818;stroke-width:1.0;"/><polygon fill="#181818" points="959.48,625.73,957.8275,616.0208,956.7115,621.5664,951.1658,620.4504,959.48,625.73" style="stroke:#181818;stroke-width:1.0;"/><text fill="#000000" font-family="sans-serif" font-size="13" lengthAdjust="spacing" textLength="29.7832" x="870.5" y="543.0669">uses</text></g><!--link Opensearch to SearchAPI--><g id="link_Opensearch_SearchAPI"><path codeLine="95" d="M606.09,500.25 C630.33,528.55 652.7655,554.7542 675.1855,580.9142 " fill="none" id="Opensearch-to-SearchAPI" style="stroke:#181818;stroke-width:1.0;"/><polygon fill="#181818" points="679.09,585.47,676.2705,576.0333,675.8363,581.6735,670.1961,581.2393,679.09,585.47" style="stroke:#181818;stroke-width:1.0;"/><text fill="#000000" font-family="sans-serif" font-size="13" lengthAdjust="spacing" textLength="115.9146" x="644.5" y="543.0669">fetches data from</text></g><!--link SearchAPI to ExternalAPI--><g id="link_SearchAPI_ExternalAPI"><path codeLine="97" d="M733.5,714.56 C733.5,744.41 733.5,772.15 733.5,793.95 " fill="none" id="SearchAPI-to-ExternalAPI" style="stroke:#181818;stroke-width:1.0;"/><polygon fill="#181818" points="733.5,799.95,737.5,790.95,733.5,794.95,729.5,790.95,733.5,799.95" style="stroke:#181818;stroke-width:1.0;"/><text fill="#000000" font-family="sans-serif" font-size="13" lengthAdjust="spacing" textLength="320.8232" x="734.5" y="766.0669">queries ("https://fbi-api.dbc.dk/bibdk21/graphql")</text></g><!--SRC=[hLHDRzf04BtxLwnoWWP3swCFbMYIgaY9Yc9LELGLMjjhM7czw-oCsz2g_xspUC4V8C8X5fBnl3SpR-TZeP2wufQNB5KSO8vePLAZMAH6n_AFOE-3O8UmX-sygjZVWD4JXhlNDRD2PyAEni6_FMqfVyjYQGtzVad2lCSreu38fHPsaKKCA8rU3v7lLlMWCsaMP7XPyhLuNL4ik4qtbt6_LKB3Zd_GNOEmJOX7yLmBm85wijbjlBCCprLRoe0kSyIaHc-kwDkLjclRS6Xo22fEOepg2oKDTtakKYIjUmUTAH7NIIbRu_5voD4TQQauviQMSVzeRo3zZCHSOBhvR4nnBw6h4MkhWVq0NrEe5KwOCZoZz3yxWyJNKdEKHhSZT5eL6kJA6Q5hDTgPRgXGQp6gzYxZroRWg-3jr9xXVJ46B-7TywsfyT8fdIyNXzEMj1E7iaatxwkcwtPazvFeHtBi_a5bQ7OzdwUf05YXAGG5YLXyj5LXqw1Ld-cXMuwSFPXCA60Zzp7n0YVioTXYmiXrkbFVN0jX-EbuyoCt5D1Xt9YID5872Meg047GRhAZ-79vrpxMMKwF1vtTFlOUW2VSFT-XlkyUwG2-qNtWNHZsu_axZ69spCxzz0RwQ0DkP-JR0WquZvI-bJC0so6AckuAO9bhPMvDkQ-MWntvxeK2QQuQkhiB9D57Lnl42gBPB4zao2ivpP9qcXMpH2PPyV73R6rvjNbML-F_]--></g></svg>