<svg xmlns="http://www.w3.org/2000/svg" xmlns:xlink="http://www.w3.org/1999/xlink" contentStyleType="text/css" height="855px" preserveAspectRatio="none" style="width:1062px;height:855px;background:#FFFFFF;" version="1.1" viewBox="0 0 1062 855" width="1062px" zoomAndPan="magnify"><defs/><g><!--class MyApp--><g id="elem_MyApp"><rect codeLine="6" fill="#F1F1F1" height="64.2969" id="MyApp" rx="2.5" ry="2.5" style="stroke:#181818;stroke-width:0.5;" width="81.1523" x="132.08" y="7"/><ellipse cx="147.7269" cy="23" fill="#ADD1B2" rx="11" ry="11" style="stroke:#181818;stroke-width:1.0;"/><path d="M150.6956,28.6406 Q150.1175,28.9375 149.4769,29.0781 Q148.8362,29.2344 148.1331,29.2344 Q145.6331,29.2344 144.305,27.5938 Q142.9925,25.9375 142.9925,22.8125 Q142.9925,19.6875 144.305,18.0313 Q145.6331,16.375 148.1331,16.375 Q148.8362,16.375 149.4769,16.5313 Q150.1331,16.6875 150.6956,16.9844 L150.6956,19.7031 Q150.0706,19.125 149.4769,18.8594 Q148.8831,18.5781 148.2581,18.5781 Q146.9144,18.5781 146.2269,19.6563 Q145.5394,20.7188 145.5394,22.8125 Q145.5394,24.9063 146.2269,25.9844 Q146.9144,27.0469 148.2581,27.0469 Q148.8831,27.0469 149.4769,26.7813 Q150.0706,26.5 150.6956,25.9219 L150.6956,28.6406 Z " fill="#000000"/><text fill="#000000" font-family="sans-serif" font-size="14" lengthAdjust="spacing" textLength="47.7148" x="161.8706" y="27.8467">MyApp</text><line style="stroke:#181818;stroke-width:0.5;" x1="133.08" x2="212.2323" y1="39" y2="39"/><line style="stroke:#181818;stroke-width:1.0;" x1="133.08" x2="212.2323" y1="47" y2="47"/><text fill="#000000" font-family="sans-serif" font-size="14" lengthAdjust="spacing" textLength="69.1523" x="138.08" y="63.9951">+render()</text></g><!--class PiwikProProvider--><g id="elem_PiwikProProvider"><rect codeLine="11" fill="#F1F1F1" height="96.8906" id="PiwikProProvider" rx="2.5" ry="2.5" style="stroke:#181818;stroke-width:0.5;" width="159.3145" x="7" y="148.29"/><ellipse cx="26.7597" cy="164.29" fill="#ADD1B2" rx="11" ry="11" style="stroke:#181818;stroke-width:1.0;"/><path d="M29.7285,169.9306 Q29.1503,170.2275 28.5097,170.3681 Q27.8691,170.5244 27.166,170.5244 Q24.666,170.5244 23.3378,168.8838 Q22.0253,167.2275 22.0253,164.1025 Q22.0253,160.9775 23.3378,159.3213 Q24.666,157.665 27.166,157.665 Q27.8691,157.665 28.5097,157.8213 Q29.166,157.9775 29.7285,158.2744 L29.7285,160.9931 Q29.1035,160.415 28.5097,160.1494 Q27.916,159.8681 27.291,159.8681 Q25.9472,159.8681 25.2597,160.9463 Q24.5722,162.0088 24.5722,164.1025 Q24.5722,166.1963 25.2597,167.2744 Q25.9472,168.3369 27.291,168.3369 Q27.916,168.3369 28.5097,168.0713 Q29.1035,167.79 29.7285,167.2119 L29.7285,169.9306 Z " fill="#000000"/><text fill="#000000" font-family="sans-serif" font-size="14" lengthAdjust="spacing" textLength="116.7373" x="41.8174" y="169.1367">PiwikProProvider</text><line style="stroke:#181818;stroke-width:0.5;" x1="8" x2="165.3145" y1="180.29" y2="180.29"/><text fill="#000000" font-family="sans-serif" font-size="14" lengthAdjust="spacing" textLength="140.4375" x="13" y="197.2851">+containerId: string</text><text fill="#000000" font-family="sans-serif" font-size="14" lengthAdjust="spacing" textLength="147.3145" x="13" y="213.582">+containerUrl: string</text><line style="stroke:#181818;stroke-width:1.0;" x1="8" x2="165.3145" y1="220.8838" y2="220.8838"/><text fill="#000000" font-family="sans-serif" font-size="14" lengthAdjust="spacing" textLength="69.1523" x="13" y="237.8789">+render()</text></g><!--class IndexPage--><g id="elem_IndexPage"><rect codeLine="18" fill="#F1F1F1" height="64.2969" id="IndexPage" rx="2.5" ry="2.5" style="stroke:#181818;stroke-width:0.5;" width="105.3086" x="355" y="7"/><ellipse cx="370" cy="23" fill="#ADD1B2" rx="11" ry="11" style="stroke:#181818;stroke-width:1.0;"/><path d="M372.9688,28.6406 Q372.3906,28.9375 371.75,29.0781 Q371.1094,29.2344 370.4063,29.2344 Q367.9063,29.2344 366.5781,27.5938 Q365.2656,25.9375 365.2656,22.8125 Q365.2656,19.6875 366.5781,18.0313 Q367.9063,16.375 370.4063,16.375 Q371.1094,16.375 371.75,16.5313 Q372.4063,16.6875 372.9688,16.9844 L372.9688,19.7031 Q372.3438,19.125 371.75,18.8594 Q371.1563,18.5781 370.5313,18.5781 Q369.1875,18.5781 368.5,19.6563 Q367.8125,20.7188 367.8125,22.8125 Q367.8125,24.9063 368.5,25.9844 Q369.1875,27.0469 370.5313,27.0469 Q371.1563,27.0469 371.75,26.7813 Q372.3438,26.5 372.9688,25.9219 L372.9688,28.6406 Z " fill="#000000"/><text fill="#000000" font-family="sans-serif" font-size="14" lengthAdjust="spacing" textLength="73.3086" x="384" y="27.8467">IndexPage</text><line style="stroke:#181818;stroke-width:0.5;" x1="356" x2="459.3086" y1="39" y2="39"/><line style="stroke:#181818;stroke-width:1.0;" x1="356" x2="459.3086" y1="47" y2="47"/><text fill="#000000" font-family="sans-serif" font-size="14" lengthAdjust="spacing" textLength="69.1523" x="361" y="63.9951">+render()</text></g><!--class SearchPage--><g id="elem_SearchPage"><rect codeLine="23" fill="#F1F1F1" height="64.2969" id="SearchPage" rx="2.5" ry="2.5" style="stroke:#181818;stroke-width:0.5;" width="114.9268" x="528.19" y="7"/><ellipse cx="543.19" cy="23" fill="#ADD1B2" rx="11" ry="11" style="stroke:#181818;stroke-width:1.0;"/><path d="M546.1588,28.6406 Q545.5806,28.9375 544.94,29.0781 Q544.2994,29.2344 543.5963,29.2344 Q541.0963,29.2344 539.7681,27.5938 Q538.4556,25.9375 538.4556,22.8125 Q538.4556,19.6875 539.7681,18.0313 Q541.0963,16.375 543.5963,16.375 Q544.2994,16.375 544.94,16.5313 Q545.5963,16.6875 546.1588,16.9844 L546.1588,19.7031 Q545.5338,19.125 544.94,18.8594 Q544.3463,18.5781 543.7213,18.5781 Q542.3775,18.5781 541.69,19.6563 Q541.0025,20.7188 541.0025,22.8125 Q541.0025,24.9063 541.69,25.9844 Q542.3775,27.0469 543.7213,27.0469 Q544.3463,27.0469 544.94,26.7813 Q545.5338,26.5 546.1588,25.9219 L546.1588,28.6406 Z " fill="#000000"/><text fill="#000000" font-family="sans-serif" font-size="14" lengthAdjust="spacing" textLength="82.9268" x="557.19" y="27.8467">SearchPage</text><line style="stroke:#181818;stroke-width:0.5;" x1="529.19" x2="642.1168" y1="39" y2="39"/><line style="stroke:#181818;stroke-width:1.0;" x1="529.19" x2="642.1168" y1="47" y2="47"/><text fill="#000000" font-family="sans-serif" font-size="14" lengthAdjust="spacing" textLength="69.1523" x="534.19" y="63.9951">+render()</text></g><!--class Opensearch--><g id="elem_Opensearch"><rect codeLine="28" fill="#F1F1F1" height="178.375" id="Opensearch" rx="2.5" ry="2.5" style="stroke:#181818;stroke-width:0.5;" width="209.5244" x="424.9" y="322.18"/><ellipse cx="483.3097" cy="338.18" fill="#ADD1B2" rx="11" ry="11" style="stroke:#181818;stroke-width:1.0;"/><path d="M486.2784,343.8206 Q485.7003,344.1175 485.0597,344.2581 Q484.419,344.4144 483.7159,344.4144 Q481.2159,344.4144 479.8878,342.7738 Q478.5753,341.1175 478.5753,337.9925 Q478.5753,334.8675 479.8878,333.2113 Q481.2159,331.555 483.7159,331.555 Q484.419,331.555 485.0597,331.7113 Q485.7159,331.8675 486.2784,332.1644 L486.2784,334.8831 Q485.6534,334.305 485.0597,334.0394 Q484.4659,333.7581 483.8409,333.7581 Q482.4972,333.7581 481.8097,334.8363 Q481.1222,335.8988 481.1222,337.9925 Q481.1222,340.0863 481.8097,341.1644 Q482.4972,342.2269 483.8409,342.2269 Q484.4659,342.2269 485.0597,341.9613 Q485.6534,341.68 486.2784,341.1019 L486.2784,343.8206 Z " fill="#000000"/><text fill="#000000" font-family="sans-serif" font-size="14" lengthAdjust="spacing" textLength="84.2051" x="503.8097" y="343.0267">Opensearch</text><line style="stroke:#181818;stroke-width:0.5;" x1="425.9" x2="633.4244" y1="354.18" y2="354.18"/><text fill="#000000" font-family="sans-serif" font-size="14" lengthAdjust="spacing" textLength="197.5244" x="430.9" y="371.1751">+userSearchRequest: string</text><text fill="#000000" font-family="sans-serif" font-size="14" lengthAdjust="spacing" textLength="143.2813" x="430.9" y="387.472">+queryString: string</text><text fill="#000000" font-family="sans-serif" font-size="14" lengthAdjust="spacing" textLength="124.7285" x="430.9" y="403.7689">+currentPage: int</text><text fill="#000000" font-family="sans-serif" font-size="14" lengthAdjust="spacing" textLength="102.8535" x="430.9" y="420.0657">+pageSize: int</text><text fill="#000000" font-family="sans-serif" font-size="14" lengthAdjust="spacing" textLength="141.4561" x="430.9" y="436.3626">+hasSearched: bool</text><line style="stroke:#181818;stroke-width:1.0;" x1="425.9" x2="633.4244" y1="443.6644" y2="443.6644"/><text fill="#000000" font-family="sans-serif" font-size="14" lengthAdjust="spacing" textLength="87.9375" x="430.9" y="460.6595">+useEffect()</text><text fill="#000000" font-family="sans-serif" font-size="14" lengthAdjust="spacing" textLength="120.0322" x="430.9" y="476.9564">+handleSubmit()</text><text fill="#000000" font-family="sans-serif" font-size="14" lengthAdjust="spacing" textLength="69.1523" x="430.9" y="493.2532">+render()</text></g><!--class useOpenPlatformSearch--><g id="elem_useOpenPlatformSearch"><rect codeLine="40" fill="#F1F1F1" height="145.7813" id="useOpenPlatformSearch" rx="2.5" ry="2.5" style="stroke:#181818;stroke-width:0.5;" width="240.9287" x="53.19" y="577.56"/><ellipse cx="85.7681" cy="593.56" fill="#ADD1B2" rx="11" ry="11" style="stroke:#181818;stroke-width:1.0;"/><path d="M88.7369,599.2006 Q88.1588,599.4975 87.5181,599.6381 Q86.8775,599.7944 86.1744,599.7944 Q83.6744,599.7944 82.3463,598.1538 Q81.0338,596.4975 81.0338,593.3725 Q81.0338,590.2475 82.3463,588.5913 Q83.6744,586.935 86.1744,586.935 Q86.8775,586.935 87.5181,587.0913 Q88.1744,587.2475 88.7369,587.5444 L88.7369,590.2631 Q88.1119,589.685 87.5181,589.4194 Q86.9244,589.1381 86.2994,589.1381 Q84.9556,589.1381 84.2681,590.2163 Q83.5806,591.2788 83.5806,593.3725 Q83.5806,595.4663 84.2681,596.5444 Q84.9556,597.6069 86.2994,597.6069 Q86.9244,597.6069 87.5181,597.3413 Q88.1119,597.06 88.7369,596.4819 L88.7369,599.2006 Z " fill="#000000"/><text fill="#000000" font-family="sans-serif" font-size="14" lengthAdjust="spacing" textLength="169.8662" x="103.6744" y="598.4067">useOpenPlatformSearch</text><line style="stroke:#181818;stroke-width:0.5;" x1="54.19" x2="293.1187" y1="609.56" y2="609.56"/><text fill="#000000" font-family="sans-serif" font-size="14" lengthAdjust="spacing" textLength="143.2813" x="59.19" y="626.5551">+queryString: string</text><text fill="#000000" font-family="sans-serif" font-size="14" lengthAdjust="spacing" textLength="124.7285" x="59.19" y="642.852">+currentPage: int</text><text fill="#000000" font-family="sans-serif" font-size="14" lengthAdjust="spacing" textLength="102.8535" x="59.19" y="659.1489">+pageSize: int</text><line style="stroke:#181818;stroke-width:1.0;" x1="54.19" x2="293.1187" y1="666.4506" y2="666.4506"/><text fill="#000000" font-family="sans-serif" font-size="14" lengthAdjust="spacing" textLength="87.9375" x="59.19" y="683.4457">+useEffect()</text><text fill="#000000" font-family="sans-serif" font-size="14" lengthAdjust="spacing" textLength="117.5713" x="59.19" y="699.7426">+fetchBookList()</text><text fill="#000000" font-family="sans-serif" font-size="14" lengthAdjust="spacing" textLength="228.9287" x="59.19" y="716.0395">+returns [searchResult, loading]</text></g><!--class Pagination--><g id="elem_Pagination"><rect codeLine="50" fill="#F1F1F1" height="113.1875" id="Pagination" rx="2.5" ry="2.5" style="stroke:#181818;stroke-width:0.5;" width="202.5996" x="329.36" y="593.86"/><ellipse cx="389.3761" cy="609.86" fill="#ADD1B2" rx="11" ry="11" style="stroke:#181818;stroke-width:1.0;"/><path d="M392.3449,615.5006 Q391.7667,615.7975 391.1261,615.9381 Q390.4855,616.0944 389.7824,616.0944 Q387.2824,616.0944 385.9542,614.4538 Q384.6417,612.7975 384.6417,609.6725 Q384.6417,606.5475 385.9542,604.8913 Q387.2824,603.235 389.7824,603.235 Q390.4855,603.235 391.1261,603.3913 Q391.7824,603.5475 392.3449,603.8444 L392.3449,606.5631 Q391.7199,605.985 391.1261,605.7194 Q390.5324,605.4381 389.9074,605.4381 Q388.5636,605.4381 387.8761,606.5163 Q387.1886,607.5788 387.1886,609.6725 Q387.1886,611.7663 387.8761,612.8444 Q388.5636,613.9069 389.9074,613.9069 Q390.5324,613.9069 391.1261,613.6413 Q391.7199,613.36 392.3449,612.7819 L392.3449,615.5006 Z " fill="#000000"/><text fill="#000000" font-family="sans-serif" font-size="14" lengthAdjust="spacing" textLength="74.0674" x="409.8761" y="614.7067">Pagination</text><line style="stroke:#181818;stroke-width:0.5;" x1="330.36" x2="530.9596" y1="625.86" y2="625.86"/><text fill="#000000" font-family="sans-serif" font-size="14" lengthAdjust="spacing" textLength="124.7285" x="335.36" y="642.8551">+currentPage: int</text><text fill="#000000" font-family="sans-serif" font-size="14" lengthAdjust="spacing" textLength="112.9775" x="335.36" y="659.152">+totalPages: int</text><text fill="#000000" font-family="sans-serif" font-size="14" lengthAdjust="spacing" textLength="190.5996" x="335.36" y="675.4489">+onPageChange(page: int)</text><line style="stroke:#181818;stroke-width:1.0;" x1="330.36" x2="530.9596" y1="682.7506" y2="682.7506"/><text fill="#000000" font-family="sans-serif" font-size="14" lengthAdjust="spacing" textLength="69.1523" x="335.36" y="699.7457">+render()</text></g><!--class Header--><g id="elem_Header"><rect codeLine="58" fill="#F1F1F1" height="64.2969" id="Header" rx="2.5" ry="2.5" style="stroke:#181818;stroke-width:0.5;" width="82.9756" x="191.17" y="379.22"/><ellipse cx="206.17" cy="395.22" fill="#ADD1B2" rx="11" ry="11" style="stroke:#181818;stroke-width:1.0;"/><path d="M209.1388,400.8606 Q208.5606,401.1575 207.92,401.2981 Q207.2794,401.4544 206.5763,401.4544 Q204.0763,401.4544 202.7481,399.8138 Q201.4356,398.1575 201.4356,395.0325 Q201.4356,391.9075 202.7481,390.2513 Q204.0763,388.595 206.5763,388.595 Q207.2794,388.595 207.92,388.7513 Q208.5763,388.9075 209.1388,389.2044 L209.1388,391.9231 Q208.5138,391.345 207.92,391.0794 Q207.3263,390.7981 206.7013,390.7981 Q205.3575,390.7981 204.67,391.8763 Q203.9825,392.9388 203.9825,395.0325 Q203.9825,397.1263 204.67,398.2044 Q205.3575,399.2669 206.7013,399.2669 Q207.3263,399.2669 207.92,399.0013 Q208.5138,398.72 209.1388,398.1419 L209.1388,400.8606 Z " fill="#000000"/><text fill="#000000" font-family="sans-serif" font-size="14" lengthAdjust="spacing" textLength="50.9756" x="220.17" y="400.0667">Header</text><line style="stroke:#181818;stroke-width:0.5;" x1="192.17" x2="273.1456" y1="411.22" y2="411.22"/><line style="stroke:#181818;stroke-width:1.0;" x1="192.17" x2="273.1456" y1="419.22" y2="419.22"/><text fill="#000000" font-family="sans-serif" font-size="14" lengthAdjust="spacing" textLength="69.1523" x="197.17" y="436.2151">+render()</text></g><!--class Footer--><g id="elem_Footer"><rect codeLine="63" fill="#F1F1F1" height="64.2969" id="Footer" rx="2.5" ry="2.5" style="stroke:#181818;stroke-width:0.5;" width="81.1523" x="309.08" y="379.22"/><ellipse cx="325.9297" cy="395.22" fill="#ADD1B2" rx="11" ry="11" style="stroke:#181818;stroke-width:1.0;"/><path d="M328.8984,400.8606 Q328.3203,401.1575 327.6797,401.2981 Q327.039,401.4544 326.3359,401.4544 Q323.8359,401.4544 322.5078,399.8138 Q321.1953,398.1575 321.1953,395.0325 Q321.1953,391.9075 322.5078,390.2513 Q323.8359,388.595 326.3359,388.595 Q327.039,388.595 327.6797,388.7513 Q328.3359,388.9075 328.8984,389.2044 L328.8984,391.9231 Q328.2734,391.345 327.6797,391.0794 Q327.0859,390.7981 326.4609,390.7981 Q325.1172,390.7981 324.4297,391.8763 Q323.7422,392.9388 323.7422,395.0325 Q323.7422,397.1263 324.4297,398.2044 Q325.1172,399.2669 326.4609,399.2669 Q327.0859,399.2669 327.6797,399.0013 Q328.2734,398.72 328.8984,398.1419 L328.8984,400.8606 Z " fill="#000000"/><text fill="#000000" font-family="sans-serif" font-size="14" lengthAdjust="spacing" textLength="45.042" x="340.3407" y="400.0667">Footer</text><line style="stroke:#181818;stroke-width:0.5;" x1="310.08" x2="389.2323" y1="411.22" y2="411.22"/><line style="stroke:#181818;stroke-width:1.0;" x1="310.08" x2="389.2323" y1="419.22" y2="419.22"/><text fill="#000000" font-family="sans-serif" font-size="14" lengthAdjust="spacing" textLength="69.1523" x="315.08" y="436.2151">+render()</text></g><!--class Layout--><g id="elem_Layout"><rect codeLine="68" fill="#F1F1F1" height="64.2969" id="Layout" rx="2.5" ry="2.5" style="stroke:#181818;stroke-width:0.5;" width="81.1523" x="349.08" y="164.59"/><ellipse cx="364.7822" cy="180.59" fill="#ADD1B2" rx="11" ry="11" style="stroke:#181818;stroke-width:1.0;"/><path d="M367.751,186.2306 Q367.1729,186.5275 366.5322,186.6681 Q365.8916,186.8244 365.1885,186.8244 Q362.6885,186.8244 361.3604,185.1838 Q360.0479,183.5275 360.0479,180.4025 Q360.0479,177.2775 361.3604,175.6213 Q362.6885,173.965 365.1885,173.965 Q365.8916,173.965 366.5322,174.1213 Q367.1885,174.2775 367.751,174.5744 L367.751,177.2931 Q367.126,176.715 366.5322,176.4494 Q365.9385,176.1681 365.3135,176.1681 Q363.9697,176.1681 363.2822,177.2463 Q362.5947,178.3088 362.5947,180.4025 Q362.5947,182.4963 363.2822,183.5744 Q363.9697,184.6369 365.3135,184.6369 Q365.9385,184.6369 366.5322,184.3713 Q367.126,184.09 367.751,183.5119 L367.751,186.2306 Z " fill="#000000"/><text fill="#000000" font-family="sans-serif" font-size="14" lengthAdjust="spacing" textLength="47.5918" x="378.9383" y="185.4367">Layout</text><line style="stroke:#181818;stroke-width:0.5;" x1="350.08" x2="429.2323" y1="196.59" y2="196.59"/><line style="stroke:#181818;stroke-width:1.0;" x1="350.08" x2="429.2323" y1="204.59" y2="204.59"/><text fill="#000000" font-family="sans-serif" font-size="14" lengthAdjust="spacing" textLength="69.1523" x="355.08" y="221.5851">+render()</text></g><!--class SearchAPI--><g id="elem_SearchAPI"><rect codeLine="73" fill="#F1F1F1" height="129.4844" id="SearchAPI" rx="2.5" ry="2.5" style="stroke:#181818;stroke-width:0.5;" width="330.8965" x="567.21" y="585.71"/><ellipse cx="693.1314" cy="601.71" fill="#ADD1B2" rx="11" ry="11" style="stroke:#181818;stroke-width:1.0;"/><path d="M696.1001,607.3506 Q695.522,607.6475 694.8814,607.7881 Q694.2408,607.9444 693.5376,607.9444 Q691.0376,607.9444 689.7095,606.3038 Q688.397,604.6475 688.397,601.5225 Q688.397,598.3975 689.7095,596.7413 Q691.0376,595.085 693.5376,595.085 Q694.2408,595.085 694.8814,595.2413 Q695.5376,595.3975 696.1001,595.6944 L696.1001,598.4131 Q695.4751,597.835 694.8814,597.5694 Q694.2876,597.2881 693.6626,597.2881 Q692.3189,597.2881 691.6314,598.3663 Q690.9439,599.4288 690.9439,601.5225 Q690.9439,603.6163 691.6314,604.6944 Q692.3189,605.7569 693.6626,605.7569 Q694.2876,605.7569 694.8814,605.4913 Q695.4751,605.21 696.1001,604.6319 L696.1001,607.3506 Z " fill="#000000"/><text fill="#000000" font-family="sans-serif" font-size="14" lengthAdjust="spacing" textLength="70.5537" x="713.6314" y="606.5567">SearchAPI</text><line style="stroke:#181818;stroke-width:0.5;" x1="568.21" x2="897.1065" y1="617.71" y2="617.71"/><text fill="#000000" font-family="sans-serif" font-size="14" lengthAdjust="spacing" textLength="57.6338" x="573.21" y="634.7051">+main()</text><text fill="#000000" font-family="sans-serif" font-size="14" lengthAdjust="spacing" textLength="318.8965" x="573.21" y="651.002">+index_handler(request: Request): Response</text><text fill="#000000" font-family="sans-serif" font-size="14" lengthAdjust="spacing" textLength="167.4258" x="573.21" y="667.2989">+access_token(): String</text><line style="stroke:#181818;stroke-width:1.0;" x1="568.21" x2="897.1065" y1="674.6006" y2="674.6006"/><text fill="#000000" font-family="sans-serif" font-size="14" lengthAdjust="spacing" textLength="152.4004" x="573.21" y="691.5957">-fetch_access_token()</text><text fill="#000000" font-family="sans-serif" font-size="14" lengthAdjust="spacing" textLength="278.6875" x="573.21" y="707.8926">-Data Models (Data, Search, Work, etc.)</text></g><!--class Component--><g id="elem_Component"><rect fill="#F1F1F1" height="48" id="Component" rx="2.5" ry="2.5" style="stroke:#181818;stroke-width:0.5;" width="113.2793" x="201.02" y="172.74"/><ellipse cx="216.02" cy="188.74" fill="#ADD1B2" rx="11" ry="11" style="stroke:#181818;stroke-width:1.0;"/><path d="M218.9888,194.3806 Q218.4106,194.6775 217.77,194.8181 Q217.1294,194.9744 216.4263,194.9744 Q213.9263,194.9744 212.5981,193.3338 Q211.2856,191.6775 211.2856,188.5525 Q211.2856,185.4275 212.5981,183.7713 Q213.9263,182.115 216.4263,182.115 Q217.1294,182.115 217.77,182.2713 Q218.4263,182.4275 218.9888,182.7244 L218.9888,185.4431 Q218.3638,184.865 217.77,184.5994 Q217.1763,184.3181 216.5513,184.3181 Q215.2075,184.3181 214.52,185.3963 Q213.8325,186.4588 213.8325,188.5525 Q213.8325,190.6463 214.52,191.7244 Q215.2075,192.7869 216.5513,192.7869 Q217.1763,192.7869 217.77,192.5213 Q218.3638,192.24 218.9888,191.6619 L218.9888,194.3806 Z " fill="#000000"/><text fill="#000000" font-family="sans-serif" font-size="14" lengthAdjust="spacing" textLength="81.2793" x="230.02" y="193.5867">Component</text><line style="stroke:#181818;stroke-width:0.5;" x1="202.02" x2="313.2993" y1="204.74" y2="204.74"/><line style="stroke:#181818;stroke-width:0.5;" x1="202.02" x2="313.2993" y1="212.74" y2="212.74"/></g><!--class Router--><g id="elem_Router"><rect fill="#F1F1F1" height="48" id="Router" rx="2.5" ry="2.5" style="stroke:#181818;stroke-width:0.5;" width="79.0244" x="933.15" y="626.45"/><ellipse cx="948.15" cy="642.45" fill="#ADD1B2" rx="11" ry="11" style="stroke:#181818;stroke-width:1.0;"/><path d="M951.1188,648.0906 Q950.5406,648.3875 949.9,648.5281 Q949.2594,648.6844 948.5563,648.6844 Q946.0563,648.6844 944.7281,647.0438 Q943.4156,645.3875 943.4156,642.2625 Q943.4156,639.1375 944.7281,637.4813 Q946.0563,635.825 948.5563,635.825 Q949.2594,635.825 949.9,635.9813 Q950.5563,636.1375 951.1188,636.4344 L951.1188,639.1531 Q950.4938,638.575 949.9,638.3094 Q949.3063,638.0281 948.6813,638.0281 Q947.3375,638.0281 946.65,639.1063 Q945.9625,640.1688 945.9625,642.2625 Q945.9625,644.3563 946.65,645.4344 Q947.3375,646.4969 948.6813,646.4969 Q949.3063,646.4969 949.9,646.2313 Q950.4938,645.95 951.1188,645.3719 L951.1188,648.0906 Z " fill="#000000"/><text fill="#000000" font-family="sans-serif" font-size="14" lengthAdjust="spacing" textLength="47.0244" x="962.15" y="647.2967">Router</text><line style="stroke:#181818;stroke-width:0.5;" x1="934.15" x2="1011.1744" y1="658.45" y2="658.45"/><line style="stroke:#181818;stroke-width:0.5;" x1="934.15" x2="1011.1744" y1="666.45" y2="666.45"/></g><!--class ExternalAPI--><g id="elem_ExternalAPI"><rect fill="#F1F1F1" height="48" id="ExternalAPI" rx="2.5" ry="2.5" style="stroke:#181818;stroke-width:0.5;" width="112.4795" x="676.42" y="800.34"/><ellipse cx="691.42" cy="816.34" fill="#ADD1B2" rx="11" ry="11" style="stroke:#181818;stroke-width:1.0;"/><path d="M694.3888,821.9806 Q693.8106,822.2775 693.17,822.4181 Q692.5294,822.5744 691.8263,822.5744 Q689.3263,822.5744 687.9981,820.9338 Q686.6856,819.2775 686.6856,816.1525 Q686.6856,813.0275 687.9981,811.3713 Q689.3263,809.715 691.8263,809.715 Q692.5294,809.715 693.17,809.8713 Q693.8263,810.0275 694.3888,810.3244 L694.3888,813.0431 Q693.7638,812.465 693.17,812.1994 Q692.5763,811.9181 691.9513,811.9181 Q690.6075,811.9181 689.92,812.9963 Q689.2325,814.0588 689.2325,816.1525 Q689.2325,818.2463 689.92,819.3244 Q690.6075,820.3869 691.9513,820.3869 Q692.5763,820.3869 693.17,820.1213 Q693.7638,819.84 694.3888,819.2619 L694.3888,821.9806 Z " fill="#000000"/><text fill="#000000" font-family="sans-serif" font-size="14" lengthAdjust="spacing" textLength="80.4795" x="705.42" y="821.1867">ExternalAPI</text><line style="stroke:#181818;stroke-width:0.5;" x1="677.42" x2="787.8995" y1="832.34" y2="832.34"/><line style="stroke:#181818;stroke-width:0.5;" x1="677.42" x2="787.8995" y1="840.34" y2="840.34"/></g><!--link MyApp to PiwikProProvider--><g id="link_MyApp_PiwikProProvider"><path codeLine="82" d="M155.25,71.63 C143.13,93.56 129.6427,117.9689 115.9227,142.7889 " fill="none" id="MyApp-to-PiwikProProvider" style="stroke:#181818;stroke-width:1.0;"/><polygon fill="#181818" points="113.02,148.04,120.8748,142.0985,115.4389,143.6641,113.8733,138.2282,113.02,148.04" style="stroke:#181818;stroke-width:1.0;"/><text fill="#000000" font-family="sans-serif" font-size="13" lengthAdjust="spacing" textLength="29.7832" x="138.66" y="114.3569">uses</text></g><!--link MyApp to Component--><g id="link_MyApp_Component"><path codeLine="83" d="M189.86,71.63 C206.16,101.47 227.3829,140.3248 242.0329,167.1348 " fill="none" id="MyApp-to-Component" style="stroke:#181818;stroke-width:1.0;"/><polygon fill="#181818" points="244.91,172.4,244.1045,162.5841,242.5124,168.0123,237.0842,166.4203,244.91,172.4" style="stroke:#181818;stroke-width:1.0;"/><text fill="#000000" font-family="sans-serif" font-size="13" lengthAdjust="spacing" textLength="49.9497" x="216.66" y="114.3569">renders</text></g><!--link IndexPage to Layout--><g id="link_IndexPage_Layout"><path codeLine="85" d="M404.01,71.63 C400.89,98.63 397.1114,131.36 393.9814,158.34 " fill="none" id="IndexPage-to-Layout" style="stroke:#181818;stroke-width:1.0;"/><polygon fill="#181818" points="393.29,164.3,398.3005,155.8209,393.8662,159.3333,390.3538,154.899,393.29,164.3" style="stroke:#181818;stroke-width:1.0;"/><text fill="#000000" font-family="sans-serif" font-size="13" lengthAdjust="spacing" textLength="29.7832" x="401.66" y="114.3569">uses</text></g><!--link IndexPage to Opensearch--><g id="link_IndexPage_Opensearch"><path codeLine="86" d="M425.66,71.63 C430.59,81 435.67,91.4 439.66,101.29 C468.83,173.75 491.4936,253.3845 507.4036,316.0545 " fill="none" id="IndexPage-to-Opensearch" style="stroke:#181818;stroke-width:1.0;"/><polygon fill="#181818" points="508.88,321.87,510.5424,312.1625,507.6497,317.0237,502.7884,314.131,508.88,321.87" style="stroke:#181818;stroke-width:1.0;"/><text fill="#000000" font-family="sans-serif" font-size="13" lengthAdjust="spacing" textLength="29.7832" x="489.66" y="201.3069">uses</text></g><!--link SearchPage to Layout--><g id="link_SearchPage_Layout"><path codeLine="88" d="M545.99,71.63 C511.99,98.63 467.9495,133.5897 433.9595,160.5697 " fill="none" id="SearchPage-to-Layout" style="stroke:#181818;stroke-width:1.0;"/><polygon fill="#181818" points="429.26,164.3,438.7961,161.8376,433.1762,161.1914,433.8224,155.5716,429.26,164.3" style="stroke:#181818;stroke-width:1.0;"/><text fill="#000000" font-family="sans-serif" font-size="13" lengthAdjust="spacing" textLength="29.7832" x="506.66" y="114.3569">uses</text></g><!--link SearchPage to Opensearch--><g id="link_SearchPage_Opensearch"><path codeLine="89" d="M580.88,71.71 C572.59,126.53 556.1473,235.2575 543.9473,315.9175 " fill="none" id="SearchPage-to-Opensearch" style="stroke:#181818;stroke-width:1.0;"/><polygon fill="#181818" points="543.05,321.85,548.351,313.5494,543.7978,316.9062,540.4409,312.353,543.05,321.85" style="stroke:#181818;stroke-width:1.0;"/><text fill="#000000" font-family="sans-serif" font-size="13" lengthAdjust="spacing" textLength="29.7832" x="568.66" y="201.3069">uses</text></g><!--link Layout to Header--><g id="link_Layout_Header"><path codeLine="91" d="M349.68,229.14 C334.45,242.32 317.64,258.47 304.66,275.18 C279.45,307.62 260.872,344.665 248.182,373.285 " fill="none" id="Layout-to-Header" style="stroke:#181818;stroke-width:1.0;"/><polygon fill="#181818" points="245.75,378.77,253.0547,372.1639,247.7767,374.1992,245.7414,368.9211,245.75,378.77" style="stroke:#181818;stroke-width:1.0;"/><text fill="#000000" font-family="sans-serif" font-size="13" lengthAdjust="spacing" textLength="29.7832" x="305.66" y="288.2469">uses</text></g><!--link Layout to Footer--><g id="link_Layout_Footer"><path codeLine="92" d="M367.33,229.34 C359.13,242.81 350.82,259.11 346.66,275.18 C337.68,309.84 339.6631,345.2332 343.3831,372.9932 " fill="none" id="Layout-to-Footer" style="stroke:#181818;stroke-width:1.0;"/><polygon fill="#181818" points="344.18,378.94,346.9492,369.4885,343.5159,373.9843,339.0201,370.551,344.18,378.94" style="stroke:#181818;stroke-width:1.0;"/><text fill="#000000" font-family="sans-serif" font-size="13" lengthAdjust="spacing" textLength="29.7832" x="347.66" y="288.2469">uses</text></g><!--reverse link Layout to Opensearch--><g id="link_Layout_Opensearch"><path codeLine="93" d="M397.6437,240.7086 C401.8637,259.8486 406.37,272.63 417.66,292.18 C423.52,302.34 430.43,312.32 437.88,321.9 " fill="none" id="Layout-backto-Opensearch" style="stroke:#181818;stroke-width:1.0;"/><polygon fill="#181818" points="395.06,228.99,392.4457,235.7105,397.6437,240.7086,400.258,233.988,395.06,228.99" style="stroke:#181818;stroke-width:1.0;"/><text fill="#000000" font-family="sans-serif" font-size="13" lengthAdjust="spacing" textLength="55.0278" x="418.66" y="288.2469">contains</text></g><!--link Opensearch to useOpenPlatformSearch--><g id="link_Opensearch_useOpenPlatformSearch"><path codeLine="95" d="M424.46,489.01 C418.8,492.94 413.17,496.82 407.66,500.56 C369.91,526.18 333.1192,550.0201 295.3592,573.9301 " fill="none" id="Opensearch-to-useOpenPlatformSearch" style="stroke:#181818;stroke-width:1.0;"/><polygon fill="#181818" points="290.29,577.14,300.0337,575.7047,294.5143,574.4651,295.7539,568.9457,290.29,577.14" style="stroke:#181818;stroke-width:1.0;"/><text fill="#000000" font-family="sans-serif" font-size="13" lengthAdjust="spacing" textLength="29.7832" x="358.66" y="543.6269">uses</text></g><!--link Opensearch to Pagination--><g id="link_Opensearch_Pagination"><path codeLine="96" d="M492.65,500.99 C479.69,532.03 467.8221,560.4534 456.2921,588.0634 " fill="none" id="Opensearch-to-Pagination" style="stroke:#181818;stroke-width:1.0;"/><polygon fill="#181818" points="453.98,593.6,461.1392,586.8365,455.9068,588.9861,453.7571,583.7537,453.98,593.6" style="stroke:#181818;stroke-width:1.0;"/><text fill="#000000" font-family="sans-serif" font-size="13" lengthAdjust="spacing" textLength="49.9497" x="481.66" y="543.6269">renders</text></g><!--link Opensearch to Router--><g id="link_Opensearch_Router"><path codeLine="97" d="M634.53,441.6 C716.65,468 830.8,512.73 915.66,577.56 C933.12,590.9 944.9933,605.7567 955.2933,621.2167 " fill="none" id="Opensearch-to-Router" style="stroke:#181818;stroke-width:1.0;"/><polygon fill="#181818" points="958.62,626.21,956.9588,616.5023,955.8477,622.0489,950.3011,620.9379,958.62,626.21" style="stroke:#181818;stroke-width:1.0;"/><text fill="#000000" font-family="sans-serif" font-size="13" lengthAdjust="spacing" textLength="29.7832" x="869.66" y="543.6269">uses</text></g><!--link Opensearch to SearchAPI--><g id="link_Opensearch_SearchAPI"><path codeLine="98" d="M605.54,500.99 C629.52,529 651.6476,554.8425 673.8676,580.7925 " fill="none" id="Opensearch-to-SearchAPI" style="stroke:#181818;stroke-width:1.0;"/><polygon fill="#181818" points="677.77,585.35,674.9547,575.9121,674.518,581.5521,668.878,581.1153,677.77,585.35" style="stroke:#181818;stroke-width:1.0;"/><text fill="#000000" font-family="sans-serif" font-size="13" lengthAdjust="spacing" textLength="115.9146" x="643.66" y="543.6269">fetches data from</text></g><!--link SearchAPI to ExternalAPI--><g id="link_SearchAPI_ExternalAPI"><path codeLine="100" d="M732.66,715.46 C732.66,745.04 732.66,772.35 732.66,794.03 " fill="none" id="SearchAPI-to-ExternalAPI" style="stroke:#181818;stroke-width:1.0;"/><polygon fill="#181818" points="732.66,800.03,736.66,791.03,732.66,795.03,728.66,791.03,732.66,800.03" style="stroke:#181818;stroke-width:1.0;"/><text fill="#000000" font-family="sans-serif" font-size="13" lengthAdjust="spacing" textLength="320.8232" x="733.66" y="766.4069">queries ("https://fbi-api.dbc.dk/bibdk21/graphql")</text></g><!--SRC=[hLLDZzCm4BtdLrXxeMMR5ZZcW5IM1Igr8jgmue1GvIHEOiMni_O4jgpuxumRj_degji3LQKsyzxCFC-7yoeKLCBzParIJdDDAv8poJG5bf9Cguf0mGYjQy4J2bn9ad7138btvAQWy3dyvdcUARcigVLD13Lc2Q1vt01R9Kf6_0yZRpnlZv3DRbdNvCaZ-F7z_SyrqKocJ4-ctjy3BUI_UHbgXTzV737dSKqm852E-bPfG0ocaVaOkTTY09r9iqB3OqXpzhAYY56T59TnlzPCcZt_gBinJBSXxjX3mmoCrADDxwAzPNokHcC6i9a3mYKuSutFjhHzMq5DcuDXSMAbn50eQhZDCfO0QZquo5Img8ahtXbFpuEEzaWuA90fNKN3e_q7wMSaPWoIueDIvPgRlaPej3JaXt4rDOs06H6AffZ-Ps-GQCvbExTFvrM10YgiqVIjIbeJJhhCsQG-k4nVce0lZ7PJUuRtIIcuXBUcEzN0fLEw35V7qrQu4yUoSJllsxRhUg8Fa-X6Sch_cLhXx3e-JH9cp1PKoJ18GAAJhVBR1cs7J0Tzf439HgLC63An3pCdS4Q-ArtE2BhEz-hRQy7ttvzkVc27mlGODwf2ZTX1XDeA6C_hDjbINBcSwn3hBQV3lTvkdtgFm6VS7T-YhkyEwG6kqKFWjUyFuxax36FspDRz-GrqqKRStiXt1HfnxZ1z9sS4TaCKjDt5wpwrhRIlWqErB6p9juyOI5BHqkrTm94-kIe0QXCi5bdCVLhpUHedyxHSn3nEotTl5_YYgOi7SJNz1m00]--></g></svg>